<?xml version="1.0" encoding="UTF-8"?>
<!-- SVG traced from OpenAI output by Yellowsink 2022-08-28 -->
<svg version="1.1" viewBox="0 0 120 120" xml:space="preserve" xmlns="http://www.w3.org/2000/svg"><g><path d="m48.87 97.719 71.134-18.24-0.0546 40.488-68.097 0.0134z" fill="#50433e"/><path d="m49.828 81.141-0.95838 16.578 71.134-18.24-0.00437-11.788z" fill="#826f65"/><path d="m120 67.69v-21.961l-10.821 24.035z" fill="#e3ccbd"/><path d="m109.18 69.764-10.114-9.1295 9.2635-15.818 9.9816 4.6669z" fill="#efdfd2"/><path d="m48.87 97.719-1.717-17.063 2.6754 0.48437z" fill="#ebd4c8"/><path d="m49.828 81.141-5.6365-17.151 6.1612 4.0845 6.5015 6.0339-1.1486 5.9379z" fill="#f4e0d0"/><path d="m44.192 63.99-6.2712-9.0551-8.173 6.7812z" fill="#ebdbcc"/><path d="m44.192 63.99 5.6365 17.151-20.081-19.425z" fill="#d8c6b5"/><path d="m49.828 81.141-2.6754-0.48437-33.41-9.4182 16.005-9.5222z" fill="#b9a497"/><path d="m99.065 60.635 10.114 9.1295-12.677 2.4299z" fill="#f9eae1"/><path d="m99.065 60.635-15.353 14.011 12.79-2.4517z" fill="#f2e4d4"/><path d="m99.065 60.635-22.664 2.6876 8.4976 10.24z" fill="#f8efe0"/><path d="m84.899 73.563-1.187 1.0833-10.071 1.9304 2.7607-13.254z" fill="#f7f5e3"/><path d="m50.353 68.074 11.218-2.5761 5.5365 12.33-11.402 2.2176 1.1486-5.9379z" fill="#fbf2e5"/><path d="m61.572 65.498 14.83-2.1758-2.7607 13.254-6.5326 1.2522z" fill="#faf8e7"/><path d="m44.192 63.99-6.2712-9.0551-6.1215-8.3071 7.9384 7.0235 7.7714 8.4318-1.8831 2.2072-0.16619 1.2715z" fill="#978783"/><path d="m47.509 62.083 4.4421-3.9756-1.3299-1.4919-10.884-2.9644z" fill="#80736f"/><path d="m45.46 65.562 4.5217 2.6 4.0215-2.0839-1.9814-1.4625-3.0047 0.20467-2.4494-1.6334-0.94155 1.1036z" fill="#e1cfca"/><path d="m53.605 63.699-1.4089-6.5422-1.1125-0.02216 0.86727 0.9729-2.221 1.9878 1.82 1.0676 0.7681 1.6856z" fill="#9e918c"/><path d="m52.196 57.157-6.5969-8.4558-1.4871-6.2181-7.0111 2.0193 7.782 4.914 5.738 7.1995 0.46262 0.51897z" fill="#8a7c7c"/><path d="m50.621 56.615-5.738-7.1995-5.1456 4.2352z" fill="#6f6866"/><path d="m37.101 44.502-6.2845 0.56566 0.98259 1.56 7.9384 7.0235 5.1456-4.2352z" fill="#6d6966"/><path d="m37.101 44.502-1.8693-11.065 8.6302 7.2844 0.25023 1.7617z" fill="#6b6260"/><path d="m35.232 33.437-4.4153 11.631 6.2845-0.56566z" fill="#685f5e"/><path d="m35.232 33.437-7.8185-2.7925-1.2769 1.9751 4.6801 12.449z" fill="#7a716f"/><path d="m43.862 40.721-0.48436-16.597-8.1458 9.3123z" fill="#59504f"/><path d="m43.378 24.124-14.695 4.3027-4.7023-8.0347 3.4329 10.252 7.8185 2.7925z" fill="#706464"/><path d="m23.981 20.392 19.397 3.732-14.695 4.3027z" fill="#84766d"/><path d="m23.981 20.392 3.4329 10.252-1.2769 1.9751z" fill="#756c6a"/><path d="m43.862 40.721 11.242-9.0601-11.726-7.5366z" fill="#635f5b"/><path d="m43.862 40.721 12.942-0.09476-7.9692-3.9132z" fill="#827776"/><path d="m44.112 42.483 3.2597-1.7874-3.5099 0.0257z" fill="#bbaeab"/><path d="m44.112 42.483 0.21957 0.91813 4.1061-1.2734 9.8188 0.58082-2.8357-2.0719-8.0491 0.05893z" fill="#d9cac3"/><path d="m55.104 31.661 1.7005 8.9654-7.9692-3.9132z" fill="#6f6d69"/><path d="m55.104 31.661-0.7521-4.4277-10.974-3.1089z" fill="#726664"/><path d="m43.378 24.124 6.3498 0.27985 12.393 5.845 0.47959 1.3205-3.6051-0.55302-3.8917 0.6443-0.7521-4.4277z" fill="#86756b"/><path d="m56.804 40.626 10.823-0.28217-12.265-7.3232z" fill="#5b5351"/><path d="m58.996 31.017-3.8917 0.6443 0.25795 1.36 12.265 7.3232 0.17372-3.545z" fill="#564d4b"/><path d="m62.601 31.57 4.4039 4.7066-8.0089-5.2596z" fill="#5e5553"/><path d="m62.121 30.249 5.9308 5.302 4.6021 2.4408 9.0339 3.9183 0.14299 0.61786-14.03-5.729-0.79632-0.52296-4.4039-4.7066z" fill="#8a8283"/><path d="m67.627 40.344 9.828 5.4509 4.3757-3.2669-14.03-5.729z" fill="#5b4f4f"/><path d="m58.257 42.708 9.1078-0.28809 3.1598 3.4342 3.6746 1.9696 3.256-2.029-9.828-5.4509-12.206 0.2923z" fill="#938681"/><path d="m55.292 45.896-1.6593-3.4616 4.6242 0.27354 4.9753 1.2577 0.05869 1.2114-5.9152 1.9052z" fill="#cfc0ba"/><path d="m58.257 42.708 9.1078-0.28809-2.1553 2.615-1.9772-1.0692z" fill="#e0cfbc"/><path d="m63.286 45.079 1.0206-0.53183-1.0745-0.58107z" fill="#dbd7d9"/><path d="m63.291 45.177 1.1225 5.7424-3.9269 1.2869-2.3512-3.157-0.75954-1.9671z" fill="#d7c2b7"/><path d="m64.413 50.92 0.22922 1.5875-4.1561-0.30062z" fill="#c7b4ac"/><path d="m60.486 52.207 2.6915 7.7933 1.4646-7.4927z" fill="#b4a6a4"/><path d="m60.486 52.207-0.01557 2.8771 0.41956 2.2799 2.2875 3.98v-1.3438z" fill="#c7b7b3"/><path d="m63.178 60 2.5314-0.5193-1.0667-6.9734z" fill="#c0b0ac"/><path d="m63.178 61.344 1.0874 0.75955 1.4034-0.08254-0.61958-2.4047-1.8712 0.38386z" fill="#e5d1c1"/><path d="m65.049 59.616 0.66019-0.13544 0.35259-0.06381 0.18156 2.3066-0.57475 0.2973z" fill="#ddc8b9"/><path d="m67.365 42.42 3.1598 3.4342 3.6746 1.9696-3.1162 2.4947-2.0204 0.18219-2.4603-3.0073-1.3929-2.4584z" fill="#cfc0b8"/><path d="m69.062 50.501 2.6333 4.8886-0.6129-5.0708z" fill="#e5d2c2"/><path d="m74.199 47.824 1.9507 6.091 0.47131 4.96-4.6334 0.20666-0.29188-3.6921-0.6129-5.0708z" fill="#afa3a0"/><path d="m71.988 59.082 1.3335 3.3641 3.9456-0.35161-0.64566-3.2192z" fill="#bdaea8"/><path d="m73.321 62.446 3.9456-0.35161 0.27952 1.1387-0.0034 1.5288-2.2791-1.3408-1.5881-0.41671z" fill="#d7c2b7"/><path d="m73.676 63.004 0.62229 1.144 1.6243 1.1028 0.25744-0.77537 1.2809 0.67225 0.08227-0.38618-2.2791-1.3408z" fill="#e9d4c6"/><path d="m81.831 42.528 5.2784 9.6233-4.0652 0.34637-2.4792-3.497-3.1097-3.2058z" fill="#7a716f"/><path d="m77.455 45.795-1.7549 1.0936 3.8666 5.2629 3.4773 0.34637-2.4792-3.497z" fill="#8c8380"/><path d="m75.7 46.889-0.35594 0.22181 1.7671 2.9706 1.3375 2.469 1.118-0.39861z" fill="#b4a49c"/><path d="m83.044 52.498 3.824 6.3253-0.53315 0.73458-4.4032-4.5537-3.4829-2.4539 1.118-0.39861z" fill="#a69994"/><path d="m86.868 58.823 0.24118-6.6717-4.0652 0.34637z" fill="#938b87"/><path d="m87.109 52.151 0.75016 2.5236-0.99134 4.1481z" fill="#948e8b"/><path d="m81.932 55.004 0.18923 3.0954 2.2916 2.5616 1.9224-1.1033z" fill="#c4afa6"/><path d="m87.859 54.675 1.4537 3.9885-1.402 1.506-0.39943-4.0397z" fill="#b9a59c"/><path d="m87.512 56.13-0.64366 2.6932-0.53315 0.73458 1.1262 1.1668 0.45002-0.55493z" fill="#a49a9b"/><path d="m84.412 60.661 1.2641 0.53845 1.7846-0.47492-1.1262-1.1668z" fill="#d1bbb7"/><path d="m89.313 58.663 0.93498 2.9431-0.8022-0.94567-1.9848 0.06353 0.45002-0.55493z" fill="#c8afa3"/><path d="m90.248 61.607-2.8947 0.43387-1.6768-0.84109 1.7846-0.47492 1.9848-0.06353z" fill="#f6e0ce"/><path d="m49.728 24.404-3.9912-2.4607-8.5768-3.4404 2.7918 2.2882 6.1691 2.8986z" fill="#c1aca1"/><path d="m49.728 24.404-3.6072-0.71427-5.9201-0.17694 3.1775 0.61135z" fill="#9a8a7e"/><path d="m46.12 23.69-6.1691-2.8986-2.7918-2.2882-2.6441-1.7118-10.535 3.6011 16.22 3.1206z" fill="#b19f93"/><path d="m23.981 20.392-2.4176-11.259 12.953 7.6575z" fill="#c7b2a5"/><path d="m23.981 20.392-20.369-7.4527 17.879 18.955 4.6465 0.72437z" fill="#a6988f"/><path d="m21.49 31.895-17.879-18.955 0.6339 14.681 6.0238 1.2367 10.299 3.3097z" fill="#d5c3b5"/><path d="m3.6115 12.94 17.951-3.8059 2.4176 11.259z" fill="#b1a194"/><path d="m21.563 9.1337-11.347-7.368-6.6046 11.174z" fill="#d5c5b8"/><path d="m10.216 1.7658-10.216-0.070335v2.5927l3.6115 8.6514z" fill="#eee2d8"/><path d="m0 4.2882v13.61l3.6115-4.9586z" fill="#ddc8bb"/><path d="m4.2454 27.621-4.2454-1.4117v-8.3111l3.6115-4.9586z" fill="#e7d2c6"/><path d="m49.73 60.095 1.82 1.0676 0.7681 1.6856 1.287 0.8505 0.3978 2.3789-1.9814-1.4625-3.0047 0.20467-2.4494-1.6334 0.94155-1.1036z" fill="#cfc2be"/></g></svg>
