<?xml version="1.0" encoding="UTF-8"?>
<!-- SVG traced from OpenAI output by Yellowsink 2022-02-20 -->
<svg id="SPITROAST" width="1280mm" height="405mm" version="1.1" viewBox="0 0 1280 405" xmlns="http://www.w3.org/2000/svg"><rect id="bg" width="1280" height="405" fill="#eee"/><g id="traced-polygons"><path d="m70.195 347.71-0.49886 10.012 91.608 2.0366 60.408 7.062 35.393-8.9394 10.951 0.0924 36.254 28.159 53.133-25.037 101.49-3.1673 27.605-4.6361 4.1497-16.042-30.15 7.4187-94.024-4.1305-61.592 27.668-37.068-29.574-47.9 13.49-83.186-13.527z" fill-opacity=".11448"/><path d="m288.56 271.17 31.539 9.6508-29.26 5.2926z" fill="#ce6a4f"/><path d="m320.1 280.82-10.613 21.76-13.04-17.467z" fill="#b14e36"/><path d="m320.1 280.82 26.971 8.1406 2.1276 3.1421-13.594 9.8764-4.746 5.8048-2.5369-3.8296-19.388 0.61918 0.55348-1.9939z" fill="#91391e"/><path d="m309.49 302.58-0.55348 1.9939-3.2826-0.1102-14.81-18.351 5.6069-1.0002z" fill="#943b23"/><path d="m290.84 286.11-38.896 3.6569 25.168 13.729 28.538 0.96513z" fill="#7b2f18"/><path d="m277.12 303.49 28.538 0.96513 3.2826 0.1102-2.194 15.08z" fill="#69200d"/><path d="m306.74 319.65 2.194-15.08 19.388-0.61918 2.5369 3.8296z" fill="#301e17"/><path d="m267.86 338.63 38.879-18.984-54.795-29.884z" fill="#6c3a24"/><path d="m267.86 338.63-59.449-31.057 43.533-17.811z" fill="#4e2d1d"/><path d="m267.86 338.63-47.908 13.488-11.541-44.545z" fill="#3b291a"/><path d="m219.96 352.12-11.541-44.545-71.645 31.018z" fill="#825132"/><path d="m208.41 307.58-71.645 31.018 12.121-56.212 16.432 15.766z" fill="#372619"/><path d="m165.32 298.15-14.583-24.338-1.8496 8.5723z" fill="#824735"/><path d="m136.77 338.6 13.971-64.785-48.566 10.923z" fill="#452f21"/><path d="m351.21 114.21 0.82626-20.772 7.4898-11.012 4.0745-1.0524 10.675-11.142 3.2802-0.11565 9.0887 10.119 2.6374 7.6656 1.7121 16.972-9.8896-16.712-27.24 25.247z" fill="#ba6f3a"/><path d="m342.86 116.76 8.3486-2.5491 0.56705-14.359z" fill="#e89d84"/><path d="m340.61 121.16 7.1585 10.095 1.0243-16.316-5.9344 1.8196z" fill="#d56448"/><path d="m324.58 113.5 16.03 7.6648 7.1585 10.095-6.696 49.869z" fill="#d97757"/><path d="m320.46 111.5 20.155 9.6625 11.164-21.309 0.25922-6.4133-8.153 11.523z" fill="#f3ceca"/><path d="m297.75 139.04 22.706-27.537-41.921 12.557z" fill="#f2c5c1"/><path d="m341.08 181.13-16.493-67.629-4.1252-1.9977-22.706 27.537z" fill="#e28971"/><path d="m470.26 159.1-0.68483-20.875-3.8241-2.4659-1.1054 6.5049z" fill="#dfcfc2"/><path d="m281.94 121.49 40.546-61.075-5.2457 50.704z" fill="#e8994f"/><path d="m293.36 104.16 1.3702-15.185-8.828 3.7117z" fill="#f4b356"/><path d="m294.73 88.971 3.0438-29.689-9.0517 2.2565-9.8955 12.688 7.0754 18.456z" fill="#ebcc8d"/><path d="m256.1 62.862 17.35 17.982 15.277-19.306 14.202-30.643z" fill="#ea9d54"/><path d="m269.02 86.419-7.7297-18.262 12.157 12.687z" fill="#f3cda6"/><path d="m253.37 77.044 10.52 14.234-7.8313 10.674-8.1332-18.006z" fill="#f4be5c"/><path d="m223.26 137.54 13.115-0.83776 19.68-34.754-8.1332-18.006z" fill="#ed9e52"/><path d="m212.54 142.94-23.376-63.821s-1.6029 54.651-2.275 53.522c-0.67207-1.1287-9.0854-8.0639-9.0854-8.0639l-1.6525-42.864 16.241-36.016 29.57 94.356z" fill="#e8894c"/><path d="m177.8 124.57-1.6525-42.864-13.685 28.971z" fill="#f2a848"/><path d="m178.3 165.05-9.7295 6.7314-16.544-17.412 10.436-43.69z" fill="#e99b51"/><path d="m168.57 171.79-16.544-17.412-3.3439 18.247 10.647 1.0234z" fill="#e48e4c"/><path d="m148.69 172.62-17.928 48.377 7.1908 10.002 4.4014-14.099 4.3975-2.2671 12.585-40.99z" fill="#e89e55"/><path d="m131.89 167.21 10.833 21.57 5.9664-16.157z" fill="#eca85f"/><path d="m146.75 214.63-4.3975 2.2671-4.4014 14.099 1.9869 5.9639z" fill="#db7f4b"/><path d="m159.33 173.64-1.7007 5.3344 17.603 49.928 25.129-45.43z" fill="#e8ac9d"/><path d="m157.63 178.98 17.603 49.928-29.37 36.889-1.5963-2.6546 2.0142-7.1867 0.0339-20.549-6.3812 1.5579z" fill="#ca694c"/><path d="m175.23 228.91-9.9115 69.242-19.459-32.352z" fill="#ca664f"/><path d="m165.32 298.15 31.862-17.899-21.951-51.342z" fill="#9a412a"/><path d="m142.72 260.35-10.293 17.557 18.313-4.1003z" fill="#ebaa53"/><path d="m132.43 277.91 10.293-17.557-9.6087-5.1766z" fill="#e19945"/><path d="m144.27 263.14-0.33966-6.3712-2.7914-5.8126-31.237-0.85953 22.163-7.2957 2.3278-4.5086 11.926-2.8885-0.0339 20.549z" fill="#b94c2c"/><path d="m144.27 263.14-0.33966-6.3712-2.7914-5.8126-31.237-0.85953 23.211 5.0789 9.6087 5.1766z" fill="#8d3121"/><path d="m132.06 242.8-22.163 7.2957-4.2109-2.1156-7.0992-8.2432-0.31779-8.1735 11.555-13.553 10.83-0.64952-8.9207 6.9158-5.7759 9.9773 4.2574 10.385 19.502-5.071 3.0226 1.933z" fill="#dd8868"/><path d="m109.9 250.1-4.2109-2.1156-7.0992-8.2432 1.0063 5.9668 4.9723 3.9279z" fill="#c16c4f"/><path d="m105.96 234.26 5.7759-9.9773 8.9207-6.9158 4.8782 1.2931-6.5407 5.3692-5.0882 2.2388-7.0256 10.352z" fill="#cb704d"/><path d="m119 224.03 2.8199 0.79309 4.6995 7.2042 5.1497-3.1057 6.3297 8.6596 1.9408-0.61331-1.9869-5.9639-7.1908-10.002-5.2211-2.3412z" fill="#d37451"/><path d="m126.51 232.02 0.87905 4.5908 2.3266 2.9568 3.0226 1.933 1.6476-3.2092 3.6036-0.71728-6.3297-8.6596z" fill="#d77d43"/><path d="m175.23 228.91 21.951 51.342 12.752-16.521z" fill="#863620"/><path d="m175.23 228.91 34.703 34.821 40.851-36.051z" fill="#d57759"/><path d="m175.23 228.91 75.554-1.2292-50.425-44.201z" fill="#c76246"/><path d="m159.33 173.64 41.031 9.8324-9e-3 -34.663-22.051 16.241-9.7295 6.7314z" fill="#e08161"/><path d="m200.36 183.48 61.022-11.857-61.032-22.806z" fill="#e4a18e"/><path d="m200.36 183.48 50.425 44.201 10.598-56.058z" fill="#bd543a"/><path d="m200.35 148.81 61.032 22.806-5.8983-12.887z" fill="#e37758"/><path d="m255.49 158.73-10.404-22.699-3.2987 0.25559 6.0616 11.528-25.891-7.7644-9.4216 2.8864 15.328 0.90147 9.4495 7.6227 8.6672-0.79193 7.2734 7.8489z" fill="#e5947c"/><path d="m247.85 147.82-6.0616-11.528-18.525 1.2546-1.3055 2.5036z" fill="#e9a998"/><path d="m212.54 142.94-12.185 5.8794 36.956 2.6501-9.4495-7.6227z" fill="#eab5aa"/><path d="m253.25 158.52-7.2734-7.8489-8.6672 0.79193-36.956-2.6501z" fill="#e6cdd2"/><path d="m245.08 136.03 29.941-11.824-13.638 47.41z" fill="#eebfb8"/><path d="m261.39 171.62 36.365-32.584-19.214-14.98-3.5123 0.15429z" fill="#e2876e"/><path d="m297.75 139.04-36.365 32.584 69.412-1.4405z" fill="#c15c3c"/><path d="m330.8 170.18 10.277 10.946-67.959 2.618-11.73-12.123z" fill="#be5639"/><path d="m341.08 181.13-39.872 31.254-28.088-28.636z" fill="#cd654a"/><path d="m261.39 171.62 39.818 40.76-50.415 15.298z" fill="#9c3c22"/><path d="m341.08 181.13 3.0185 38.326-42.89-7.072z" fill="#d7785b"/><path d="m344.09 219.45-12.962 34.312-29.928-41.384z" fill="#be553a"/><path d="m331.13 253.76-33.225 3.1637 3.2964-44.548z" fill="#753423"/><path d="m301.2 212.38-3.2964 44.548-2.8944 1.7886-44.225-31.039z" fill="#b45034"/><path d="m250.79 227.68 1.0279 33.269 29.24 7.857 13.957-10.087z" fill="#5d2b1c"/><path d="m250.79 227.68 1.0279 33.269-10.932 3.6397-30.947-0.85782z" fill="#b14b31"/><path d="m240.88 264.59-43.699 15.663 12.752-16.521z" fill="#793c2b"/><path d="m165.32 298.15 43.092 9.4284-11.23-27.328z" fill="#722b15"/><path d="m208.41 307.58 43.533-17.811-54.763-9.5165z" fill="#7b3420"/><path d="m197.19 280.25 54.763 9.5165-24.907-20.572z" fill="#ab4d33"/><path d="m227.04 269.19 24.775-8.247 0.13215 28.82z" fill="#ce7154"/><path d="m251.95 289.77 19.89-23.847-20.022-4.9725z" fill="#db8a72"/><path d="m271.84 265.92 6.95 7.3746-22.563 11.344z" fill="#e49f8f"/><path d="m278.79 273.29 12.056 12.816-38.896 3.6569 4.2774-5.1284z" fill="#d88b7a"/><path d="m271.84 265.92 16.726 5.2467 2.2795 14.943z" fill="#9e4d3b"/><path d="m299.47 274.63 47.609 14.331 2.1276 3.1421 3.7312-7.8171-53.036-21.138z" fill="#3d281b"/><path d="m344.09 219.45 38.121 25.879-51.082 8.4333z" fill="#ad452c"/><path d="m382.21 245.33-1.19-25.252-39.949-38.953 3.0185 38.326z" fill="#de846c"/><path d="m381.02 220.08 38.891-18.627-15.896-17.785z" fill="#693626"/><path d="m381.02 220.08-2.8139-62.769-37.135 23.816z" fill="#b54e32"/><path d="m381.02 220.08 22.994-36.412 14.313-36.475-40.121 10.118z" fill="#c0563a"/><path d="m404.02 183.67 15.896 17.785 11.193-5.967 5.6681-10.772z" fill="#803f2c"/><path d="m436.78 184.71-18.445-37.521-14.313 36.475z" fill="#ba4b31"/><path d="m436.78 184.71 4.1303-26.463-17.484-13.309-5.091 2.2504z" fill="#8d432d"/><path d="m440.91 158.25-3.6231-21.286 26.625-0.67812z" fill="#ecb09f"/><path d="m440.91 158.25 10.122-9.6469 10.833 4.711-7.9466 13.366z" fill="#cc694a"/><path d="m440.91 158.25 24.798 15.982 0.12208 3.5214-10.992-0.21081-19.882 10.642 1.8245-3.4717z" fill="#593524"/><path d="m453.91 166.68 11.79 7.5524-2.5386-23.184z" fill="#b0553d"/><path d="m461.86 153.31 1.3044-2.2661-0.92007-13.176-11.217 10.731z" fill="#db7556"/><path d="m465.7 174.23 6.3029-9.8969-7.3607-22.074-1.4807 8.7871z" fill="#ba7153"/><path d="m463.17 151.05 2.5861-15.292-1.8434 0.53029-1.6628 1.5862z" fill="#cc6745"/><path d="m347.77 131.26 8.461 40.201-15.157 9.668z" fill="#e69583"/><path d="m356.23 171.46 21.978-14.148-30.439-26.053z" fill="#df886f"/><path d="m347.77 131.26 7.291 6.2495-1.1984-24.098-5.0683 1.5332z" fill="#dc8160"/><path d="m378.21 157.31-23.148-19.804-1.1984-24.098 36.93-2.9586z" fill="#b65d39"/><path d="m390.99 104.87-0.2 5.5761-36.93 2.9586 27.24-25.247z" fill="#b16531"/><path d="m390.99 104.87 43.982 32.756-11.553 7.313-5.091 2.2504-40.121 10.118 12.583-46.861z" fill="#dd785b"/><path d="m389.49 89.973 3.7209 9.7566 19.76 4.2416 6.9471 4.8785 17.784 20.067-12.203-2.6258 9.4783 11.338-43.982-32.756z" fill="#f4dfdc"/><path d="m437.7 128.92-2.7247 8.7118-9.4783-11.338z" fill="#e5a79c"/><path d="m434.98 137.63 2.3076-0.66354 3.6231 21.286-17.484-13.309z" fill="#d26741"/><path d="m331.13 253.76 51.082-8.4333-29.281 38.951z" fill="#652f1f"/><path d="m352.93 284.28 38.558 8.5637 4.9466-6.1661-14.224-41.349z" fill="#ae563d"/><path d="m382.21 245.33 14.224 41.349 9.7353-12.421z" fill="#9d5134"/><path d="m406.17 274.26-14.682 18.588 37.058-0.84132-7.6867-8.5992-8.7692-5.1714-3.2781 0.24133z" fill="#ba664d"/><path d="m102.17 284.73 34.595 53.862-66.566 9.114z" fill="#573d2f"/><path d="m349.2 292.1 38.766 5.0365 3.5234-4.29-38.558-8.5637z" fill="#2d231a"/><path d="m387.97 297.14 4.3647 3.3067-56.725 1.5332 13.594-9.8764z" fill="#3d2a1e"/><path d="m392.33 300.44-56.725 1.5332-4.746 5.8048 35.659 32.753 32.7-34.875z" fill="#51382b"/><path d="m399.22 305.66-11.253-8.5226 3.5234-4.29 37.058-0.84132z" fill="#2f201a"/><path d="m399.22 305.66 61.324 39.006-94.024-4.1305z" fill="#79492e"/><path d="m460.54 344.66 0.40605-57.221-21.838 6.3239-9.5756 31.175z" fill="#3b291e"/><path d="m429.54 324.94 9.5756-31.175-39.892 11.891z" fill="#392a1e"/><path d="m399.22 305.66 29.328-13.654 10.564 1.7629z" fill="#2c2019"/><path d="m428.55 292 10.564 1.7629 21.838-6.3239-35.978 0.61402z" fill="#1b120c"/><path d="m330.86 307.78 35.659 32.753-61.591 27.671z" fill="#332116"/><path d="m304.93 368.2-37.066-29.57 62.998-30.854z" fill="#493225"/><path d="m460.54 344.66 30.154-7.4127-29.748-49.808z" fill="#453328"/></g><g id="spitroast-text" fill="#262626" stroke-width=".26458" aria-label="spitroast"><path d="m565.22 222.04q0.72319 4.3392 4.1945 6.5088 3.616 2.0249 8.6783 2.0249 4.3392 0 6.798-1.591 2.6035-1.7357 2.6035-4.1945 0-4.0499-7.232-5.3516l-14.753-2.8928q-10.125-1.8803-15.621-7.232-5.4963-5.3516-5.4963-13.885 0-7.3766 3.9052-12.873 4.0499-5.6409 11.137-8.6783t16.2-3.0374q13.307 0 21.985 5.6409 8.823 5.6409 10.993 15.187l-21.117 4.1945q-0.57856-3.616-3.9053-6.0748-3.1821-2.4589-8.2444-2.4589-4.3392 0-6.3641 1.7357-1.8803 1.591-1.8803 3.9052 0 1.7357 1.1571 3.0374t4.3392 2.025l17.067 3.4713q9.9801 2.1696 15.042 7.9552 5.0624 5.6409 5.0624 13.885 0 11.716-9.1122 18.08-9.1123 6.3641-23.865 6.3641-13.741 0-23.142-5.207-9.2569-5.3516-10.993-15.91z"/><path d="m667.77 170.83q9.5462 0 17.646 4.9177 8.2444 4.9177 13.018 13.741 4.7731 8.6783 4.7731 19.816t-4.7731 19.96q-4.7731 8.823-13.018 13.741-8.0998 4.7731-17.646 4.7731-13.741 0-22.564-7.9552v30.374h-23.142v-97.197h23.142v5.7856q8.823-7.9552 22.564-7.9552zm-4.7731 57.277q7.6659 0 12.584-5.207 4.9177-5.207 4.9177-13.596 0-8.2444-4.9177-13.451-4.9177-5.3516-12.584-5.3516-4.7731 0-8.823 2.4589-4.0499 2.3142-6.5088 6.6534t-2.4589 9.6908q0 5.4963 2.4589 9.8354 2.4589 4.1945 6.5088 6.6534 4.0499 2.3142 8.823 2.3142z"/><path d="m727.94 138.43q5.7856 0 9.5462 3.9052 3.9052 3.9052 3.9052 9.2569 0 5.4963-3.9052 9.2569-3.7606 3.616-9.5462 3.616t-9.5462-3.616q-3.7606-3.7606-3.7606-9.2569t3.7606-9.2569q3.7606-3.9052 9.5462-3.9052zm-11.571 34.569h23.142v72.609h-23.142z"/><path d="m811.25 242.43q-4.7731 2.6035-9.4015 3.9053-4.6284 1.4464-10.414 1.4464-13.741 0-21.407-7.3766-7.5212-7.3766-7.5212-21.551v-27.481h-13.162v-18.369h13.162v-21.407h23.142v21.407h21.407v18.369h-21.407v25.167q0 10.559 9.6908 10.559 2.4589 0 5.3516-0.7232 2.8928-0.86783 5.207-2.1696z"/><path d="m868.24 171.99q2.8928 0 5.207 0.57855l-1.0125 23.142h-4.1945q-25.023 0-25.023 27.192v22.708h-23.142v-72.609h23.142v13.885q8.9676-14.898 25.023-14.898z"/><path d="m918.28 171.12q10.848 0 19.96 4.9177 9.1123 4.7731 14.464 13.451t5.3516 19.816-5.3516 19.96q-5.3516 8.6783-14.464 13.596-9.1123 4.7731-19.96 4.7731-10.993 0-20.249-4.7731-9.1123-4.9177-14.609-13.596-5.3516-8.823-5.3516-19.96t5.3516-19.816q5.4963-8.6783 14.609-13.451 9.2569-4.9177 20.249-4.9177zm0 56.988q4.4838 0 8.5337-2.3142 4.0499-2.4589 6.5088-6.6534 2.4589-4.3392 2.4589-9.8354t-2.4589-9.6908q-2.4589-4.3392-6.5088-6.6534-4.0499-2.4589-8.5337-2.4589-4.7731 0-8.9676 2.4589-4.0499 2.3142-6.5088 6.6534-2.4589 4.1945-2.4589 9.6908t2.4589 9.8354q2.4589 4.3392 6.5088 6.6534 4.1945 2.3142 8.9676 2.3142z"/><path d="m1023.3 245.61v-5.7856q-8.823 7.9552-22.564 7.9552-9.5462 0-17.791-4.7731-8.0998-4.9177-12.873-13.741t-4.7731-19.96 4.7731-19.816q4.7731-8.823 12.873-13.741 8.2444-4.9177 17.791-4.9177 13.741 0 22.564 7.9552v-5.7856h23.142v72.609zm-17.791-17.501q4.7731 0 8.823-2.3142 4.0499-2.4589 6.5087-6.6534 2.4589-4.3392 2.4589-9.8354 0-5.3516-2.4589-9.6908-2.4588-4.3392-6.5087-6.6534-4.0499-2.4589-8.823-2.4589-7.6659 0-12.584 5.3516-4.9177 5.207-4.9177 13.451 0 8.3891 4.9177 13.596 4.9177 5.207 12.584 5.207z"/><path d="m1080.9 222.04q0.7232 4.3392 4.1945 6.5088 3.616 2.0249 8.6784 2.0249 4.3391 0 6.798-1.591 2.6035-1.7357 2.6035-4.1945 0-4.0499-7.232-5.3516l-14.753-2.8928q-10.125-1.8803-15.621-7.232-5.4963-5.3516-5.4963-13.885 0-7.3766 3.9052-12.873 4.0499-5.6409 11.137-8.6783t16.2-3.0374q13.307 0 21.985 5.6409 8.823 5.6409 10.993 15.187l-21.117 4.1945q-0.5786-3.616-3.9053-6.0748-3.182-2.4589-8.2444-2.4589-4.3392 0-6.3641 1.7357-1.8803 1.591-1.8803 3.9052 0 1.7357 1.1571 3.0374t4.3392 2.025l17.067 3.4713q9.9801 2.1696 15.042 7.9552 5.0624 5.6409 5.0624 13.885 0 11.716-9.1123 18.08-9.1122 6.3641-23.865 6.3641-13.741 0-23.142-5.207-9.2569-5.3516-10.993-15.91z"/><path d="m1191.5 242.43q-4.7731 2.6035-9.4015 3.9053-4.6285 1.4464-10.414 1.4464-13.741 0-21.406-7.3766-7.5213-7.3766-7.5213-21.551v-27.481h-13.162v-18.369h13.162v-21.407h23.142v21.407h21.407v18.369h-21.407v25.167q0 10.559 9.6908 10.559 2.4589 0 5.3516-0.7232 2.8928-0.86783 5.207-2.1696z"/></g></svg>
